<svg width="162" height="37" viewBox="0 0 162 37" fill="none" xmlns="http://www.w3.org/2000/svg">
<path fill-rule="evenodd" clip-rule="evenodd" d="M153.551 3.84416C154.067 3.1302 154.896 2.70929 155.776 2.71413V2.71413C158.006 2.72638 159.282 5.25991 157.958 7.05387C154.158 12.2023 148.224 20.2421 147.533 21.1779C147.199 21.6277 146.692 22.1129 146.435 22.7142C146.157 23.3608 145.876 24.3375 145.646 25.2436C145.307 26.5746 144.133 27.5472 142.76 27.554V27.554C140.838 27.5635 139.46 25.7306 139.731 23.8283C139.812 23.2638 139.861 22.722 139.851 22.2752C139.816 20.6667 138.995 19.0603 138.535 17.4472C138.448 17.1442 138.356 16.7873 138.264 16.4071C137.788 14.4569 139.307 12.6191 141.315 12.6191H142.838C143.404 12.6191 143.898 13.0046 144.036 13.5542V13.5542C144.29 14.5729 145.619 14.8288 146.234 13.9776L153.551 3.84416Z" fill="white"/>
<path fill-rule="evenodd" clip-rule="evenodd" d="M141.561 6.30113V6.30113C143.978 7.75831 141.003 11.2441 138.181 11.2725C136.53 11.2892 134.804 11.3024 133.487 11.3024V11.3024C131.689 11.3024 130.13 12.5444 129.727 14.2968L127.188 25.3474C126.893 26.6319 125.75 27.5423 124.432 27.5423V27.5423C122.646 27.5423 121.307 25.9105 121.663 24.1603C122.738 18.8715 124.761 9.00711 125.368 6.69397C125.64 5.65827 127.229 5.8358 129.912 5.8358H134.198C136.966 5.8358 140.201 5.48261 141.561 6.30113Z" fill="white"/>
<path fill-rule="evenodd" clip-rule="evenodd" d="M112.625 14.1952C113.993 14.2041 115.139 13.1102 114.395 11.961V11.961C113.728 10.9318 113.111 10.6926 111.356 10.6378C110.468 10.6099 109.742 10.7048 109.149 10.8793C106.727 11.5921 108.499 14.1686 111.023 14.1849L112.625 14.1952ZM120.375 10.0036V10.0036C121.754 14.977 116.015 18.6876 110.855 18.7385C110.015 18.7468 109.219 18.7606 108.525 18.7818C107.293 18.8193 105.819 18.6479 105.452 19.2208C104.936 20.0238 105.641 21.2596 106.238 21.7817C106.925 22.383 108.263 22.4512 108.744 22.5125C110.46 22.7305 113.178 22.7458 115.339 22.7126C117.026 22.6867 118.321 24.2406 117.95 25.886V25.886C117.697 27.0052 116.729 27.818 115.582 27.8459C112.549 27.9198 106.676 27.9365 103.257 27.1209C102.318 26.8972 101.438 26.4452 100.843 25.8042C100.681 25.6289 100.54 25.3897 100.387 25.1834C100.264 25.0186 99.9066 24.4767 99.7461 24.0485C98.6599 21.154 99.8734 15.6084 101.063 12.637C101.201 12.2925 101.374 11.856 101.557 11.4848C101.785 11.022 101.978 10.4996 102.16 10.223C102.283 10.0321 102.435 9.90914 102.562 9.72914C102.709 9.5163 102.88 9.30997 103.038 9.12594C103.477 8.61661 103.975 8.25662 104.574 7.80925C106.556 6.32557 110.142 5.17339 114.45 5.61456C116.072 5.78124 118.521 6.36058 119.717 8.0286C120.037 8.4741 120.195 9.3583 120.375 10.0036Z" fill="white"/>
<path fill-rule="evenodd" clip-rule="evenodd" d="M93.7049 7.89903C93.9984 6.67578 95.0889 5.8108 96.3469 5.80333V5.80333C98.0901 5.79298 99.3986 7.3891 99.0375 9.0946C98.3818 12.1922 97.3655 16.9802 96.4321 21.3238C95.6511 24.9579 92.4355 27.5424 88.7184 27.5424V27.5424C84.2701 27.5424 80.3089 28.0932 78.6235 24.9087C76.9886 21.8168 78.5488 16.7319 79.2819 13.2775C79.576 11.8893 80.0548 9.67833 80.4138 8.02648C80.6923 6.74442 81.8214 5.82732 83.1333 5.81527V5.81527C84.9269 5.79878 86.2785 7.4426 85.9222 9.20061C85.3994 11.7806 84.7119 15.2418 84.3293 17.4472C84.0879 18.8386 83.5901 20.1488 84.1099 21.178C84.6038 22.157 85.295 22.227 87.4017 22.2753V22.2753C89.0771 22.3142 90.5294 21.1306 90.9205 19.501L93.7049 7.89903Z" fill="white"/>
<path fill-rule="evenodd" clip-rule="evenodd" d="M68.3091 16.3499C68.8884 14.2915 69.7333 12.0596 69.6258 10.2051C69.5096 8.22139 67.8462 6.4152 66.773 6.03568C63.5405 4.89434 60.5143 6.48986 59.3116 7.79106C57.7554 9.47674 57.2287 11.4453 56.6779 14.1555C56.2677 16.1677 55.9319 18.2921 56.6779 19.8612C57.3554 21.284 58.7689 21.8177 60.5836 22.0036C64.1519 22.3693 67.335 19.802 68.3091 16.3499V16.3499ZM75.9902 8.23006C76.4791 11.7848 75.1388 15.6247 73.7336 19.2232C73.1282 20.7736 74.7547 21.1408 75.83 22.4113V22.4113C75.9419 22.5761 74.6887 27.6762 74.2518 27.6892C72.9001 27.7245 68.4212 27.7617 66.5534 27.7617C60.4591 27.7617 54.7577 28.1589 51.8501 25.1283C50.6694 23.8971 49.8531 21.7858 49.6554 20.3002C49.3261 17.8202 49.7388 15.0902 50.3138 12.8388C50.8339 10.8064 51.501 8.88841 52.5085 7.13272C55.0694 2.66247 59.5244 -0.655588 66.9924 0.110262C68.4407 0.25959 70.5211 0.89377 71.8205 1.6463C71.9103 1.69928 72.2244 1.94929 72.2966 1.99328C74.0523 3.11046 75.6522 5.77668 75.9902 8.23006Z" fill="white"/>
<path fill-rule="evenodd" clip-rule="evenodd" d="M45.7524 5.82781C47.4337 5.83917 48.6936 7.41703 48.3457 9.06202V9.06202C48.0927 10.2582 47.0352 11.0832 45.8125 11.0832H45.1976C43.4547 11.0832 42.1695 9.34687 42.5828 7.65376V7.65376C42.8624 6.50849 43.8799 5.81604 45.0588 5.82329C45.2894 5.82471 45.5203 5.82625 45.7524 5.82781Z" fill="white"/>
<path fill-rule="evenodd" clip-rule="evenodd" d="M40.9705 14.8116C41.2924 13.5048 42.4554 12.6193 43.8013 12.6193V12.6193C45.7076 12.6193 47.1452 14.3435 46.7633 16.2111C45.9479 20.1999 44.8549 25.0153 43.9496 28.6395C43.1968 31.6527 42.6943 33.8518 40.6576 35.4426C40.4754 35.5855 40.3704 35.5176 40.2189 35.6623C39.8434 36.0201 38.1076 36.4349 37.1465 36.54C36.5935 36.5998 36.015 36.6201 35.4132 36.6195C33.6276 36.6178 32.372 34.7599 32.8286 33.0336V33.0336C33.1766 31.7178 34.4917 31.1207 35.7508 30.6037C38.1776 29.6074 38.3997 26.1093 39.1216 22.7144C39.4866 21.0005 40.3675 17.2601 40.9705 14.8116Z" fill="white"/>
<path fill-rule="evenodd" clip-rule="evenodd" d="M27.4567 24.0571C27.5152 24.0025 27.6115 24.0662 27.5827 24.1409V24.1409C25.4187 28.3543 21.5848 30.9396 16.116 31.0536C13.5595 31.1063 11.1235 30.4504 9.53227 29.737C6.09803 28.1941 3.20967 25.3327 1.63212 22.2755C-0.600637 17.9512 -1.02757 11.9583 3.48135 7.42538C3.59806 7.30804 3.64749 7.32911 3.56725 7.47385C3.50675 7.58297 3.42873 7.71626 3.35736 7.84039C3.24816 8.0303 3.10302 8.44223 3.03866 8.65162V8.65162C-0.351897 19.2666 10.094 28.3633 20.2483 27.3229C22.5836 27.0837 25.534 25.8494 27.4567 24.0571Z" fill="white"/>
<path fill-rule="evenodd" clip-rule="evenodd" d="M21.565 19.4224V19.4224C23.1705 19.4335 24.3648 20.8784 22.8203 21.3171C21.3009 21.7486 19.5463 21.8753 17.6149 21.6171C13.1205 21.0158 8.83892 16.4929 8.39775 11.961C8.18999 9.83625 8.59319 8.26335 9.4128 6.77471C9.57655 6.4773 10.1872 6.79508 10.1534 7.13291V7.13291C9.43375 14.2675 15.8527 19.3853 21.565 19.4224Z" fill="white"/>
<path fill-rule="evenodd" clip-rule="evenodd" d="M23.7203 12.1818C25.0942 12.1563 25.7621 13.1209 24.418 13.4071V13.4071C20.4196 14.2587 17.8587 12.3627 16.5176 10.2052C16.318 9.88268 15.9494 9.00282 15.8834 8.77883C15.6822 8.09463 15.5946 7.27477 15.6526 6.44643C15.7249 5.41623 16.6165 5.78798 16.8645 6.79047V6.79047C17.0136 7.39181 17.4677 8.44114 17.9222 9.10134C18.7494 10.304 19.2739 10.5962 20.3363 11.2347C20.8146 11.5222 21.328 11.7527 21.5498 11.8162C22.0215 11.9549 22.7388 12.2001 23.7203 12.1818Z" fill="white"/>
</svg>
