<svg width="65" height="65" viewBox="0 0 65 65" fill="none" xmlns="http://www.w3.org/2000/svg">
<path d="M0.5 0.5H64.5V64.5H0.5V0.5Z" fill="#F7DF1E" stroke="white"/>
<mask id="path-2-inside-1_820_83" fill="white">
<path d="M17.0909 54.3188L22.0651 51.3084C23.0248 53.0099 23.8977 54.4495 25.9916 54.4495C27.9988 54.4495 29.2642 53.6643 29.2642 50.6104V29.8413H35.3726V50.6967C35.3726 57.0234 31.6641 59.9031 26.2535 59.9031C21.3671 59.9031 18.5306 57.3723 17.0908 54.3183"/>
</mask>
<path d="M17.0909 54.3188L22.0651 51.3084C23.0248 53.0099 23.8977 54.4495 25.9916 54.4495C27.9988 54.4495 29.2642 53.6643 29.2642 50.6104V29.8413H35.3726V50.6967C35.3726 57.0234 31.6641 59.9031 26.2535 59.9031C21.3671 59.9031 18.5306 57.3723 17.0908 54.3183" fill="black"/>
<path d="M22.0651 51.3084L22.9361 50.8172L22.4296 49.919L21.5474 50.4529L22.0651 51.3084ZM29.2642 29.8413V28.8413H28.2642V29.8413H29.2642ZM35.3726 29.8413H36.3726V28.8413H35.3726V29.8413ZM17.6086 55.1743L22.5829 52.164L21.5474 50.4529L16.5731 53.4632L17.6086 55.1743ZM21.1941 51.7997C21.6621 52.6295 22.1877 53.5485 22.9126 54.2404C23.6875 54.98 24.6727 55.4495 25.9916 55.4495V53.4495C25.2167 53.4495 24.7184 53.1992 24.2934 52.7936C23.8185 52.3403 23.4278 51.6889 22.9361 50.8172L21.1941 51.7997ZM25.9916 55.4495C27.0958 55.4495 28.2473 55.2387 29.0944 54.3756C29.9321 53.5219 30.2642 52.2411 30.2642 50.6104H28.2642C28.2642 52.0336 27.9636 52.6724 27.6669 52.9747C27.3794 53.2677 26.8946 53.4495 25.9916 53.4495V55.4495ZM30.2642 50.6104V29.8413H28.2642V50.6104H30.2642ZM29.2642 30.8413H35.3726V28.8413H29.2642V30.8413ZM34.3726 29.8413V50.6967H36.3726V29.8413H34.3726ZM34.3726 50.6967C34.3726 53.6626 33.5086 55.6704 32.1563 56.9446C30.7932 58.2288 28.7909 58.9031 26.2535 58.9031V60.9031C29.1267 60.9031 31.6839 60.1375 33.5278 58.4002C35.3823 56.6529 36.3726 54.0575 36.3726 50.6967H34.3726ZM26.2535 58.9031C21.7997 58.9031 19.2904 56.6389 17.9953 53.8918L16.1863 54.7447C17.7708 58.1057 20.9344 60.9031 26.2535 60.9031V58.9031Z" fill="white" mask="url(#path-2-inside-1_820_83)"/>
<mask id="path-4-inside-2_820_83" fill="white">
<path d="M38.6905 53.6641L43.6641 50.7844C44.9734 52.9226 46.675 54.4932 49.6855 54.4932C52.2164 54.4932 53.8304 53.2278 53.8304 51.4825C53.8304 49.3881 52.1725 48.6463 49.38 47.425L47.8533 46.7701C43.4462 44.8943 40.5227 42.5382 40.5227 37.564C40.5227 32.9826 44.0132 29.4919 49.4675 29.4919C53.3507 29.4919 56.1432 30.8447 58.15 34.3789L53.3941 37.433C52.3469 35.557 51.2128 34.8153 49.4676 34.8153C47.6786 34.8153 46.5441 35.9497 46.5441 37.433C46.5441 39.2656 47.6786 40.0075 50.2963 41.142L51.8233 41.7964C57.0155 44.0218 59.939 46.2904 59.939 51.3952C59.939 56.8932 55.6195 59.9035 49.8165 59.9035C44.1444 59.9035 40.4792 57.1984 38.6906 53.6641"/>
</mask>
<path d="M38.6905 53.6641L43.6641 50.7844C44.9734 52.9226 46.675 54.4932 49.6855 54.4932C52.2164 54.4932 53.8304 53.2278 53.8304 51.4825C53.8304 49.3881 52.1725 48.6463 49.38 47.425L47.8533 46.7701C43.4462 44.8943 40.5227 42.5382 40.5227 37.564C40.5227 32.9826 44.0132 29.4919 49.4675 29.4919C53.3507 29.4919 56.1432 30.8447 58.15 34.3789L53.3941 37.433C52.3469 35.557 51.2128 34.8153 49.4676 34.8153C47.6786 34.8153 46.5441 35.9497 46.5441 37.433C46.5441 39.2656 47.6786 40.0075 50.2963 41.142L51.8233 41.7964C57.0155 44.0218 59.939 46.2904 59.939 51.3952C59.939 56.8932 55.6195 59.9035 49.8165 59.9035C44.1444 59.9035 40.4792 57.1984 38.6906 53.6641" fill="black"/>
<path d="M43.6641 50.7844L44.5169 50.2622L44.0074 49.4301L43.163 49.919L43.6641 50.7844ZM49.38 47.425L49.7807 46.5088L49.7742 46.506L49.38 47.425ZM47.8533 46.7701L48.2476 45.8511L48.2449 45.85L47.8533 46.7701ZM58.15 34.3789L58.6904 35.2204L59.4872 34.7086L59.0196 33.8851L58.15 34.3789ZM53.3941 37.433L52.5209 37.9204L53.0394 38.8492L53.9344 38.2744L53.3941 37.433ZM50.2963 41.142L49.8986 42.0595L49.9023 42.0611L50.2963 41.142ZM51.8233 41.7964L52.2172 40.8773L52.2172 40.8773L51.8233 41.7964ZM39.1915 54.5295L44.1652 51.6498L43.163 49.919L38.1894 52.7987L39.1915 54.5295ZM42.8113 51.3066C43.5059 52.4409 44.3471 53.4968 45.4725 54.2662C46.6142 55.0466 47.9914 55.4932 49.6855 55.4932V53.4932C48.3691 53.4932 47.3902 53.1545 46.6012 52.6151C45.7959 52.0646 45.1316 51.266 44.5169 50.2622L42.8113 51.3066ZM49.6855 55.4932C51.1073 55.4932 52.3693 55.1386 53.3032 54.4452C54.2567 53.7372 54.8304 52.6962 54.8304 51.4825H52.8304C52.8304 52.014 52.5972 52.4784 52.1109 52.8395C51.6051 53.2151 50.7946 53.4932 49.6855 53.4932V55.4932ZM54.8304 51.4825C54.8304 50.8207 54.6978 50.2198 54.4151 49.6757C54.1347 49.1359 53.7337 48.7042 53.2702 48.34C52.3839 47.6437 51.134 47.1007 49.7807 46.5088L48.9793 48.3412C50.4184 48.9706 51.3937 49.4092 52.0346 49.9127C52.3346 50.1484 52.5226 50.3712 52.6403 50.5977C52.7558 50.8199 52.8304 51.0971 52.8304 51.4825H54.8304ZM49.7742 46.506L48.2476 45.8511L47.459 47.6891L48.9857 48.344L49.7742 46.506ZM48.2449 45.85C46.0887 44.9322 44.4183 43.945 43.2835 42.6654C42.179 41.42 41.5227 39.8302 41.5227 37.564H39.5227C39.5227 40.272 40.3282 42.3473 41.7872 43.9924C43.2159 45.6034 45.2107 46.7321 47.4617 47.6902L48.2449 45.85ZM41.5227 37.564C41.5227 35.5374 42.2897 33.7893 43.6307 32.5423C44.9747 31.2926 46.956 30.4919 49.4675 30.4919V28.4919C46.5247 28.4919 44.0336 29.4366 42.2688 31.0776C40.5011 32.7214 39.5227 35.0093 39.5227 37.564H41.5227ZM49.4675 30.4919C51.2943 30.4919 52.7867 30.81 54.0347 31.4886C55.2762 32.1637 56.3515 33.2367 57.2804 34.8727L59.0196 33.8851C57.9417 31.9869 56.6173 30.6164 54.9901 29.7316C53.3693 28.8502 51.5239 28.4919 49.4675 28.4919V30.4919ZM57.6097 33.5375L52.8537 36.5915L53.9344 38.2744L58.6904 35.2204L57.6097 33.5375ZM54.2673 36.9456C53.7003 35.9299 53.0592 35.1276 52.2456 34.5875C51.4153 34.0364 50.492 33.8153 49.4676 33.8153V35.8153C50.1883 35.8153 50.7047 35.9651 51.1395 36.2538C51.5911 36.5535 52.0406 37.06 52.5209 37.9204L54.2673 36.9456ZM49.4676 33.8153C48.3597 33.8153 47.3745 34.1695 46.6561 34.8337C45.9345 35.5009 45.5441 36.426 45.5441 37.433H47.5441C47.5441 36.9567 47.721 36.573 48.0139 36.3022C48.31 36.0284 48.7864 35.8153 49.4676 35.8153V33.8153ZM45.5441 37.433C45.5441 38.6121 45.933 39.5305 46.7652 40.2886C47.5162 40.9726 48.6048 41.4988 49.8986 42.0595L50.6939 40.2245C49.3701 39.6507 48.5826 39.2387 48.112 38.81C47.7225 38.4553 47.5441 38.0864 47.5441 37.433H45.5441ZM49.9023 42.0611L51.4293 42.7156L52.2172 40.8773L50.6902 40.2229L49.9023 42.0611ZM51.4293 42.7156C54.0007 43.8176 55.8657 44.8745 57.096 46.1971C58.2829 47.473 58.939 49.0631 58.939 51.3952H60.939C60.939 48.6225 60.1333 46.5259 58.5604 44.8349C57.031 43.1908 54.8381 42.0006 52.2172 40.8773L51.4293 42.7156ZM58.939 51.3952C58.939 53.8544 57.9865 55.6881 56.4303 56.9293C54.8475 58.1917 52.5571 58.9035 49.8165 58.9035V60.9035C52.8788 60.9035 55.6497 60.1101 57.6774 58.4929C59.7317 56.8544 60.939 54.4339 60.939 51.3952H58.939ZM49.8165 58.9035C44.51 58.9035 41.1961 56.4004 39.5828 53.2126L37.7983 54.1156C39.7623 57.9965 43.7788 60.9035 49.8165 60.9035V58.9035Z" fill="white" mask="url(#path-4-inside-2_820_83)"/>
</svg>
